# AST/ASF file generated using VICON BodyLanguage
# -----------------------------------------------
:version 1.10
:name VICON
:units
  mass 1.0
  length 0.45
  angle deg
:documentation
   .ast/.asf automatically generated from VICON data using
   VICON BodyBuilder and BodyLanguage model FoxedUp or BRILLIANT.MOD
:root
   order TX TY TZ RX RY RZ
   axis XYZ
   position 0 0 0  
   orientation 0 0 0 
:bonedata
  begin
     id 1 
     name lhipjoint
     direction 0.528046 -0.759594 0.379717 
     length 2.39752 
     axis 0 0 0  XYZ
  end
  begin
     id 2 
     name lfemur
     direction 0.34202 -0.939693 0  
     length 7.31175  
     axis 0 0 20  XYZ
    dof rx ry rz
    limits (-160.0 20.0)
           (-70.0 70.0)
           (-60.0 70.0)
  end
  begin
     id 3 
     name ltibia
     direction 0.34202 -0.939693 0   
     length 7.52482   
     axis 0 0 20   XYZ
    dof rx
    limits (-10.0 170.0)
  end
  begin
     id 4 
     name lfoot
     direction 0.0675379 -0.185559 0.980309   
     length 2.00961   
     axis -90 7.62852e-016 20   XYZ
    dof rx rz
    limits (-45.0 90.0)
           (-70.0 20.0)
  end
  begin
     id 5 
     name ltoes
     direction 1.5352e-011 -4.22286e-011 1   
     length 1.01383   
     axis -90 7.62852e-016 20   XYZ
    dof rx
    limits (-90.0 20.0)
  end
  begin
     id 6 
     name rhipjoint
     direction -0.510274 -0.769251 0.384544   
     length 2.36742  
     axis 0 0 0  XYZ 
  end
  begin
     id 7 
     name rfemur
     direction -0.34202 -0.939693 0   
     length 7.45325   
     axis 0 0 -20   XYZ
    dof rx ry rz
    limits (-160.0 20.0)
           (-70.0 70.0)
           (-70.0 60.0)
  end
  begin
     id 8 
     name rtibia
     direction -0.34202 -0.939693 0   
     length 7.49587   
     axis 0 0 -20   XYZ
    dof rx
    limits (-10.0 170.0)
 end
 begin
     id 9 
     name rfoot
     direction -0.106475 -0.292536 0.950308   
     length 2.20898  
     axis -90 -7.62852e-016 -20   XYZ
    dof rx rz
    limits (-45.0 90.0)
           (-20.0 70.0)
  end
  begin
     id 10 
     name rtoes
     direction -1.53597e-011 -4.22023e-011 1   
     length 1.10065   
     axis -90 -7.62852e-016 -20   XYZ
    dof rx
    limits (-90.0 20.0)
  end
  begin
     id 11 
     name lowerback
     direction 0.0260024 0.998026 -0.0571652   
     length 2.11214   
     axis 0 0 0   XYZ
    dof rx ry rz
    limits (-20.0 45.0)
           (-30.0 30.0)
           (-30.0 30.0)
  end
  begin
     id 12 
     name upperback
     direction 0.0216202 0.999542 -0.0211766   
     length 2.11689   
     axis 0 0 0   XYZ
    dof rx ry rz
    limits (-20.0 45.0)
           (-30.0 30.0)
           (-30.0 30.0)
  end
  begin
     id 13 
     name thorax
     direction 0.00883312 0.999944 0.00589057   
     length 2.11821   
     axis 0 0 0   XYZ
    dof rx ry rz
    limits (-20.0 45.0)
           (-30.0 30.0)
           (-30.0 30.0)
  end
  begin
     id 14 
     name lowerneck
     direction -0.059386 0.994433 0.0870401   
     length 1.81176   
     axis 0 0 0   XYZ
    dof rx ry rz
    limits (-20.0 45.0)
           (-30.0 30.0)
           (-30.0 30.0)
  end
  begin
     id 15 
     name upperneck
     direction 0.0506457 0.97328 -0.223967   
     length 1.82382   
     axis 0 0 0   XYZ
    dof rx ry rz
    limits (-20.0 45.0)
           (-30.0 30.0)
           (-30.0 30.0)
  end
  begin
     id 16
     name head
     direction 0.0205902 0.996147 -0.0852487  
     length 1.84805  
     axis 0 0 0   XYZ
    dof rx ry rz
    limits (-20.0 45.0)
           (-30.0 30.0)
           (-30.0 30.0)
  end
  begin
     id 17 
     name lclavicle
     direction 0.949493 0.303881 -0.0782325  
     length 3.60584  
     axis 0 0 0   XYZ
    dof ry rz
    limits (-20.0 10.0)
           (0.0 20.0)
  end
  begin
     id 18 
     name lhumerus
     direction 1 -4.48965e-011 1.48782e-027   
     length 4.95681   
     axis 180 -30 -90   XYZ
    dof rx ry rz
    limits (-60.0 90.0)
           (-90.0 90.0)
           (-90.0 90.0)
  end
  begin
     id 19
     name lradius
     direction 1 -4.48952e-011 2.06528e-027   
     length 3.40915   
     axis 180 -30 -90   XYZ
    dof rx
    limits (-10.0 170.0)
  end
  begin
     id 20
     name lwrist
     direction 1 -4.48964e-011 1.28021e-027   
     length 1.70457   
     axis -1.61767e-015 90 90   XYZ
    dof ry
    limits (-180.0 0.0)
 end
  begin
     id 21 
     name lhand
     direction 1 -4.49094e-011 2.54887e-027   
     length 0.616403   
     axis -1.63363e-015 90 90   XYZ
    dof rx rz
    limits (-90.0 90.0)
           (-45.0 45.0)
  end
  begin
     id 22 
     name lfingers
     direction 1 -4.49002e-011 5.11407e-027   
     length 0.49696   
     axis -3.26723e-015 90 90   XYZ
    dof rx
    limits (0.0 90.0)
  end
  begin
     id 23
     name lthumb
     direction 0.707107 -6.34998e-011 0.707107   
     length 0.713539   
     axis -90 45 -2.25915e-014   XYZ
    dof rx rz
    limits (-45.0 45.0)
           (-45.0 45.0)
  end
  begin
     id 24 
     name rclavicle
     direction -0.937751 0.334612 -0.0930482   
     length 3.46287  
     axis 0 0 0   XYZ 
    dof ry rz
    limits (-10.0 20.0)
           (-20.0 0.0)
  end
  begin
     id 25 
     name rhumerus
     direction -1 -4.48962e-011 3.59972e-027  
     length 5.352   
     axis 180 30 90   XYZ
    dof rx ry rz
    limits (-90.0 60.0)
           (-90.0 90.0)
           (-90.0 90.0)
  end
  begin
     id 26 
     name rradius
     direction -1 -4.48987e-011 -3.76925e-027   
     length 3.43721   
     axis 180 30 90   XYZ
    dof rx
    limits (-10.0 170.0)
  end
  begin
     id 27 
     name rwrist
     direction -1 -4.48943e-011 1.28112e-027   
     length 1.7186   
     axis -1.61767e-015 -90 -90   XYZ
    dof ry
    limits (-180.0 0.0)
  end
  begin
     id 28
     name rhand
     direction -1 -4.49027e-011 2.55483e-027   
     length 0.72009   
     axis -1.63363e-015 -90 -90   XYZ
    dof rx rz
    limits (-90.0 90.0)
           (-45.0 45.0)
  end
  begin
     id 29
     name rfingers
     direction -1 -4.48827e-011 5.14506e-027   
     length 0.580555   
     axis -3.26723e-015 -90 -90   XYZ
    dof rx
    limits (0.0 90.0)
  end
  begin
     id 30
     name rthumb
     direction -0.707107 -6.34936e-011 0.707107   
     length 0.833564   
     axis -90 -45 2.25915e-014   XYZ
    dof rx rz
    limits (-45.0 45.0)
           (-45.0 45.0)
  end
:hierarchy
  begin
    root lhipjoint rhipjoint lowerback
    lhipjoint lfemur
    lfemur ltibia
    ltibia lfoot
    lfoot ltoes
    rhipjoint rfemur
    rfemur rtibia
    rtibia rfoot
    rfoot rtoes
    lowerback upperback
    upperback thorax
    thorax lowerneck lclavicle rclavicle
    lowerneck upperneck
    upperneck head
    lclavicle lhumerus
    lhumerus lradius
    lradius lwrist
    lwrist lhand lthumb
    lhand lfingers
    rclavicle rhumerus
    rhumerus rradius
    rradius rwrist
    rwrist rhand rthumb
    rhand rfingers
  end

#!OML:ASF H:\Terrain\Patient Classification 1\Terrain2\Thursday\justin.ASF
:FULLY-SPECIFIED
:DEGREES
1
root 19.1634 20.3768 -11.1004 4.92499 -5.35298 -5.09179
lowerback -1.0043 -2.22322 2.05833
upperback -2.64185 -2.91082 3.34139
thorax -2.07882 -1.46275 2.3035
lowerneck -5.9875 -10.3641 -15.4255
upperneck 22.4824 -13.7412 6.0396
head 9.61223 -7.21496 3.05149
rclavicle 8.92046e-015 1.98785e-015
rhumerus -32.2197 -9.82627 -81.1015
rradius 24.3342
rwrist -5.35132
rhand -20.141 12.6042
rfingers 7.12502
rthumb 6.20365 -17.285
lclavicle 8.92046e-015 1.98785e-015
lhumerus -35.9289 6.33715 87.4084
lradius 26.4742
lwrist 0.0849999
lhand -13.2263 25.561
lfingers 7.12502
lthumb 12.8751 55.1439
rfemur -14.27 -2.65717 28.7611
rtibia 36.9183
rfoot -24.2707 2.61823
rtoes 11.622
lfemur -14.2822 0.362456 -15.1383
ltibia 37.6088
lfoot -24.0014 1.71579
ltoes 1.35366
2
root 19.1653 20.3743 -11.1031 4.8851 -5.34087 -5.13147
lowerback -0.970284 -2.17987 2.14669
upperback -2.60441 -2.8528 3.31438
thorax -2.06647 -1.43557 2.22632
lowerneck -5.9823 -10.364 -15.2985
upperneck 22.4961 -13.7423 5.96414
head 9.60009 -7.21237 3.00705
rclavicle -8.40486e-015 1.66979e-014
rhumerus -32.2175 -9.85511 -81.1565
rradius 24.3906
rwrist -5.38617
rhand -20.1725 12.8893
rfingers 7.12502
rthumb 6.17327 -17.0007
lclavicle -8.40486e-015 1.66979e-014
lhumerus -35.7438 6.75903 87.0316
lradius 26.3182
lwrist -1.74147
lhand -13.4788 24.6982
lfingers 7.12502
lthumb 12.6316 54.2962
rfemur -14.2183 -2.73532 28.7912
rtibia 36.9039
rfoot -24.1912 2.63243
rtoes 11.5853
lfemur -14.2643 0.19489 -15.1182
ltibia 37.6725
lfoot -24.0747 1.8972
ltoes 1.59025
3
root 19.1637 20.3714 -11.1052 4.85553 -5.3277 -5.04408
lowerback -0.964939 -2.15991 2.04507
upperback -2.59226 -2.82725 3.27808
thorax -2.05422 -1.42114 2.24523
lowerneck -5.79508 -10.2915 -15.2528
upperneck 22.3613 -13.6748 5.99819
head 9.50798 -7.17782 3.03359
rclavicle -3.29113e-014 -8.34896e-015
rhumerus -32.2777 -9.86475 -81.1737
rradius 24.4213
rwrist -5.42539
rhand -20.1984 13.3418
rfingers 7.12502
rthumb 6.14825 -16.549
lclavicle -3.29113e-014 -8.34896e-015
lhumerus -35.6374 6.89221 86.855
lradius 26.2117
lwrist -2.60322
lhand -13.5951 24.3512
lfingers 7.12502
lthumb 12.5195 53.9562
rfemur -14.2261 -2.70891 28.709
rtibia 36.9582
rfoot -24.1464 2.63098
rtoes 11.8149
lfemur -14.2292 0.126283 -15.2157
ltibia 37.6442
lfoot -24.0909 1.99285
ltoes 1.10205
4
root 19.1629 20.3685 -11.1076 4.80365 -5.34154 -4.83385
lowerback -0.950882 -2.1559 1.79056
upperback -2.56694 -2.82398 3.22906
thorax -2.02588 -1.41512 2.33645
lowerneck -5.52919 -10.1852 -15.2061
upperneck 22.0811 -13.5746 6.08398
head 9.35 -7.12358 3.08786
rclavicle -5.46534e-014 2.0276e-014
rhumerus -32.3045 -9.74573 -81.2487
rradius 24.5054
rwrist -5.64784
rhand -20.1734 13.3027
rfingers 7.12502
rthumb 6.17239 -16.5874
lclavicle -5.46534e-014 2.0276e-014
lhumerus -35.5349 6.63436 87.0401
lradius 26.1287
lwrist -1.71535
lhand -14.6283 24.1766
lfingers 7.12502
lthumb 11.5232 53.8399
rfemur -14.2251 -2.66292 28.4756
rtibia 36.9992
rfoot -24.1554 2.73722
rtoes 12.5824
lfemur -14.1851 0.203663 -15.4437
ltibia 37.6154
lfoot -24.0532 1.9375
ltoes 0.947556
5
root 19.1636 20.3663 -11.1107 4.70995 -5.35835 -4.78865
lowerback -0.86337 -2.16097 1.72413
upperback -2.51782 -2.82945 3.2295
thorax -2.02099 -1.41658 2.37633
lowerneck -5.46362 -10.1047 -15.1677
upperneck 21.9953 -13.4749 6.10294
head 9.2939 -7.07314 3.1073
rclavicle -1.17656e-014 3.29983e-014
rhumerus -32.2474 -9.5942 -81.3673
rradius 24.5989
rwrist -6.03187
rhand -20.3661 12.7139
rfingers 7.12502
rthumb 5.98635 -17.1815
lclavicle -1.17656e-014 3.29983e-014
lhumerus -35.4787 6.46018 87.2359
lradius 26.1207
lwrist -0.753517
lhand -15.8484 23.8846
lfingers 7.12502
lthumb 10.3464 53.6101
rfemur -14.1664 -2.67752 28.4091
rtibia 37.0458
rfoot -24.1914 2.79917
rtoes 13.2607
lfemur -14.0836 0.282671 -15.4939
ltibia 37.5676
lfoot -23.9702 1.85627
ltoes 1.26732
6
root 19.1644 20.3672 -11.1103 4.6041 -5.37806 -4.72364
lowerback -0.746605 -2.15966 1.65461
upperback -2.493 -2.82464 3.22454
thorax -2.05797 -1.41286 2.41437
lowerneck -5.46455 -10.0143 -15.1866
upperneck 22.0275 -13.35 6.11958
head 9.29312 -7.01545 3.13314
rclavicle -5.29761e-014 9.54166e-015
rhumerus -32.1915 -9.61533 -81.3571
rradius 24.5086
rwrist -5.9088
rhand -20.4953 12.4893
rfingers 7.12502
rthumb 5.86162 -17.4096
lclavicle -5.29761e-014 9.54166e-015
lhumerus -35.5115 6.29856 87.3936
lradius 26.1192
lwrist 0.022809
lhand -15.4559 24.3223
lfingers 7.12502
lthumb 10.7251 54.0285
rfemur -14.073 -2.73994 28.3178
rtibia 37.075
rfoot -24.1533 2.90542
rtoes 13.8145
lfemur -13.9523 0.291583 -15.5623
ltibia 37.5345
lfoot -23.9636 1.68559
ltoes 2.11002
7
root 19.1643 20.3671 -11.1108 4.49102 -5.35495 -4.63485
lowerback -0.621293 -2.16816 1.55806
upperback -2.46951 -2.83324 3.19849
thorax -2.10044 -1.41548 2.44633
lowerneck -5.49447 -9.92758 -15.1729
upperneck 22.0961 -13.2381 6.15867
head 9.31064 -6.95909 3.15831
rclavicle -2.53947e-014 1.51076e-014
rhumerus -32.1545 -9.75042 -81.2799
rradius 24.3462
rwrist -5.28887
rhand -20.2718 12.9052
rfingers 7.12502
rthumb 6.07744 -16.9876
lclavicle -2.53947e-014 1.51076e-014
lhumerus -35.527 5.69519 87.8176
lradius 26.0238
lwrist 2.13626
lhand -15.4482 24.9856
lfingers 7.12502
lthumb 10.7325 54.6915
rfemur -13.9519 -2.75355 28.2151
rtibia 37.0752
rfoot -24.1136 2.95858
rtoes 14.2264
lfemur -13.8428 0.32352 -15.6466
ltibia 37.535
lfoot -23.982 1.48003
ltoes 2.57156
8
root 19.1651 20.3667 -11.1137 4.43046 -5.25591 -4.77656
lowerback -0.600875 -2.18471 1.73302
upperback -2.39508 -2.85561 3.2087
thorax -2.04276 -1.42989 2.35802
lowerneck -5.70554 -9.8791 -15.14
upperneck 22.346 -13.1708 6.21869
head 9.43045 -6.91744 3.17099
rclavicle -3.84648e-014 -1.94809e-014
rhumerus -32.0815 -9.88708 -81.2717
rradius 24.3521
rwrist -5.10001
rhand -19.8758 13.0589
rfingers 7.12502
rthumb 6.45968 -16.8226
lclavicle -3.84648e-014 -1.94809e-014
lhumerus -35.4072 5.28001 88.0817
lradius 25.8858
lwrist 3.51724
lhand -16.0854 24.8811
lfingers 7.12502
lthumb 10.1177 54.6178
rfemur -13.8476 -2.74128 28.3882
rtibia 37.0473
rfoot -24.2287 2.62431
rtoes 12.436
lfemur -13.8163 0.391843 -15.4731
ltibia 37.5644
lfoot -23.949 1.37116
ltoes 1.9316
9
root 19.1666 20.3675 -11.1174 4.44416 -5.17001 -4.93261
lowerback -0.646976 -2.1911 1.92211
upperback -2.34467 -2.86592 3.24077
thorax -1.97254 -1.43818 2.28204
lowerneck -6.02546 -9.79878 -15.1569
upperneck 22.7819 -13.0417 6.25915
head 9.6324 -6.8523 3.18678
rclavicle 4.93234e-015 -7.95139e-015
rhumerus -32.011 -10.002 -81.2702
rradius 24.3837
rwrist -5.34494
rhand -19.7489 12.737
rfingers 7.12502
rthumb 6.58223 -17.1407
lclavicle 4.93234e-015 -7.95139e-015
lhumerus -35.2712 5.29258 88.077
lradius 25.7811
lwrist 3.51014
lhand -16.3185 24.6966
lfingers 7.12502
lthumb 9.89284 54.4441
rfemur -13.8274 -2.74679 28.5734
rtibia 36.993
rfoot -24.3049 2.45456
rtoes 11.1608
lfemur -13.8656 0.330804 -15.2995
ltibia 37.6253
lfoot -23.924 1.44816
ltoes 1.22159
